<?xml version="1.0" standalone="no"?>
<!DOCTYPE svg PUBLIC "-//W3C//DTD SVG 20010904//EN" "http://www.w3.org/TR/2001/REC-SVG-20010904/DTD/svg10.dtd">
<svg version="1.0" xmlns="http://www.w3.org/2000/svg"
  width="300.000000pt" height="300.000000pt" viewBox="0 0 300.000000 300.000000"
  preserveAspectRatio="xMidYMid meet">
  <metadata> Created by potrace 1.10, written by Peter Selinger 2001-2011 </metadata>
  <g transform="translate(0.000000,360.000000) scale(0.121, -0.121)"
    fill="#ffffff" stroke="none">
    <path
      d="M1332 2515 c-245 -47 -470 -182 -624 -374 -243 -304 -284 -703 -112
-1068 70 -148 211 -312 339 -397 33 -22 71 -47 85 -56 41 -27 170 -77 260
-101 71 -19 111 -23 240 -23 137 -1 167 3 258 27 281 73 513 257 656 518 146
267 156 643 22 906 -140 276 -381 473 -675 550 -120 32 -334 40 -449 18z m442
-54 c98 -26 249 -97 330 -155 67 -48 176 -155 230 -227 179 -237 235 -583 140
-869 -91 -271 -281 -491 -524 -606 -109 -51 -171 -72 -265 -89 -54 -10 -255
-15 -255 -7 0 4 -28 8 -61 9 -34 1 -66 6 -71 11 -6 6 -17 8 -26 5 -9 -4 -13
-2 -9 4 5 7 0 9 -13 6 -12 -3 -20 0 -20 6 0 7 -5 9 -10 6 -15 -10 -51 5 -44
17 5 7 1 9 -9 5 -10 -3 -17 -2 -17 2 0 11 -56 31 -64 24 -3 -4 -6 -1 -6 6 0 7
-4 9 -10 6 -5 -3 -10 -1 -10 5 0 6 -4 8 -10 5 -5 -3 -10 -1 -10 5 0 6 -4 9 -9
6 -5 -3 -12 1 -15 10 -4 9 -9 14 -13 11 -11 -12 -65 25 -125 86 -33 34 -65 61
-70 59 -5 -1 -7 1 -4 6 2 4 -19 33 -48 65 -29 31 -50 57 -47 57 3 0 -3 7 -13
15 -11 8 -16 15 -10 15 5 0 2 6 -7 13 -9 7 -17 15 -17 20 -1 4 -15 34 -32 67
-135 267 -145 588 -26 846 136 293 401 502 726 570 98 20 343 12 444 -15z" />
    <path
      d="M1415 2390 c-208 -29 -397 -122 -539 -266 -156 -157 -240 -343 -253
-560 -25 -424 249 -806 663 -926 68 -20 102 -23 239 -23 138 0 171 3 237 23
167 49 280 116 395 234 175 179 264 392 266 633 1 198 -55 363 -181 532 -153
205 -414 342 -682 357 -47 2 -112 1 -145 -4z m240 -42 c11 -3 38 -9 60 -13 44
-9 42 -9 70 -19 226 -87 358 -187 468 -357 60 -93 99 -183 122 -284 19 -81 19
-278 0 -357 -17 -69 -45 -150 -56 -162 -5 -6 -9 -18 -9 -27 0 -9 -7 -22 -15
-29 -8 -6 -13 -15 -12 -18 7 -23 -182 -239 -233 -267 -12 -6 80 97 102 115 8
6 58 79 58 84 0 2 10 25 22 52 26 59 24 52 39 141 14 84 2 181 -29 222 -34 46
-42 33 -15 -25 48 -105 30 -280 -40 -393 -129 -210 -380 -351 -625 -351 -86 0
-111 -9 -34 -12 23 -1 39 -5 36 -10 -9 -14 -148 -7 -227 12 -76 19 -174 55
-194 72 -7 6 -13 7 -13 3 0 -5 -8 -1 -18 8 -10 10 -22 14 -25 10 -4 -3 -7 -1
-7 5 0 6 -18 21 -40 32 -37 19 -195 168 -233 220 -82 115 -139 268 -149 403
-3 31 -2 57 2 57 4 0 15 -37 25 -82 10 -46 22 -87 27 -93 6 -6 7 0 4 15 -40
184 -32 299 28 418 41 82 144 161 208 162 l23 1 -25 13 -25 14 35 11 35 11
-33 -5 c-47 -7 -125 -43 -118 -54 3 -5 -1 -12 -10 -15 -10 -4 -13 -2 -8 7 4 6
-5 0 -21 -16 -40 -39 -43 -26 -7 30 35 55 69 89 126 127 45 30 56 32 56 10 0
-18 56 -74 73 -74 6 0 -1 12 -15 28 -15 15 -29 39 -33 53 -8 31 14 88 52 137
24 31 106 92 125 92 4 0 8 -19 9 -42 1 -56 20 -119 39 -128 8 -5 34 -16 57
-25 52 -22 96 -67 121 -126 23 -54 90 -115 144 -131 46 -13 50 -28 8 -28 -30
0 -42 -21 -20 -35 18 -11 11 -22 -24 -39 -38 -18 -141 -22 -131 -6 4 7 -3 9
-22 5 -23 -5 -25 -4 -13 5 12 10 11 11 -9 6 -31 -6 -87 4 -71 14 17 10 -130
-1 -160 -12 -23 -9 -23 -10 -7 -19 16 -10 15 -14 -19 -51 -58 -65 -79 -120
-79 -213 0 -109 31 -174 134 -283 31 -33 36 -37 17 -12 -122 164 -158 245
-141 326 l9 39 6 -47 c9 -71 26 -79 21 -11 -4 74 12 125 55 173 32 35 117 80
129 68 3 -3 0 -19 -6 -37 -16 -45 8 -102 71 -173 70 -79 90 -126 90 -220 0
-42 -4 -99 -9 -125 -5 -26 -12 -65 -16 -85 -3 -21 -10 -38 -16 -38 -6 0 -34
11 -62 23 -29 13 -63 28 -77 34 -48 20 -127 91 -165 149 -49 74 -73 145 -81
243 -8 96 5 130 85 217 31 34 64 73 74 88 10 14 24 26 32 26 8 0 15 5 15 11 0
6 -8 8 -17 5 -10 -2 -37 -10 -61 -17 -60 -17 -124 -77 -152 -140 -20 -49 -43
-223 -26 -208 3 3 8 34 11 68 7 91 30 149 75 190 67 63 80 71 80 52 0 -5 -18
-28 -41 -52 -23 -24 -55 -72 -71 -107 -29 -59 -30 -68 -26 -161 3 -89 7 -105
41 -174 43 -88 127 -177 215 -231 183 -110 414 -109 575 4 44 30 67 40 97 40
22 0 40 -2 40 -5 0 -15 -52 -85 -89 -118 -48 -44 -46 -45 18 -12 49 24 121 97
121 121 0 8 24 29 53 47 98 63 154 143 178 256 12 57 5 116 -12 90 -5 -7 -9
-25 -9 -39 0 -29 -16 -89 -29 -109 -7 -11 -17 -10 -57 9 -53 25 -116 78 -108
91 2 4 0 10 -6 14 -16 10 -11 66 10 112 32 72 117 104 180 68 40 -23 76 -18
99 11 12 15 21 34 21 44 0 45 -101 100 -182 100 -38 0 -53 20 -27 36 36 22 56
181 26 219 -30 39 -46 54 -77 70 -42 23 -52 23 -111 9 -57 -14 -84 -6 -197 64
-45 27 -105 56 -132 63 l-49 12 15 28 c15 29 11 51 -15 81 -21 24 -50 23 -78
-4 -27 -26 -29 -40 -6 -79 17 -28 17 -29 -20 -65 -29 -30 -37 -45 -37 -74 0
-56 20 -68 78 -47 44 16 52 16 100 2 63 -19 92 -45 93 -82 6 -130 -2 -408 -11
-417 -8 -8 -10 -7 -5 5 3 9 -4 26 -19 42 -21 23 -28 25 -55 17 -17 -6 -45 -14
-63 -20 -32 -10 -74 -5 -95 12 -7 6 -24 8 -37 4 -29 -7 -38 -43 -21 -83 20
-47 53 -69 105 -72 39 -3 41 -14 46 -197 2 -98 6 -204 9 -236 5 -63 2 -67 -60
-62 -70 6 -88 13 -80 32 18 42 45 193 45 253 0 93 -25 164 -78 219 -67 70 -98
150 -73 189 8 13 23 12 105 -4 92 -18 96 -18 135 0 39 17 71 52 71 76 0 7 7
20 15 29 22 25 10 44 -46 75 -61 33 -93 66 -120 125 -11 25 -38 61 -61 80
l-40 36 11 69 c9 58 8 73 -5 92 -18 28 -38 29 -71 3 -29 -23 -43 -25 -43 -8 0
6 -7 19 -16 29 -9 10 -13 22 -9 28 8 13 96 39 189 56 66 12 226 14 271 3z
m-135 -53 c20 -24 3 -57 -28 -53 -27 3 -39 26 -28 54 7 18 40 18 56 -1z m-206
-151 c-4 -35 -10 -64 -13 -64 -3 0 -17 9 -30 19 -24 18 -24 19 -4 29 11 6 23
8 27 5 3 -3 6 9 6 27 l0 34 -25 -35 c-14 -19 -31 -34 -38 -34 -22 0 -10 33 29
78 36 41 40 43 47 25 4 -11 4 -49 1 -84z m-276 44 c-14 -18 -28 -43 -32 -55
-4 -13 -11 -23 -16 -23 -4 0 -6 -8 -3 -18 3 -12 -5 -22 -24 -32 -119 -60 -203
-158 -203 -236 0 -17 -9 -42 -20 -56 -10 -14 -30 -58 -43 -97 -40 -119 -49
-41 -10 84 33 106 129 262 207 339 53 52 140 119 165 125 2 1 -8 -14 -21 -31z
m581 -38 c24 -11 78 -41 119 -67 80 -50 100 -54 198 -38 81 13 144 -47 144
-138 0 -92 -51 -155 -134 -164 -38 -5 -45 -2 -64 22 -20 25 -30 65 -17 65 3 0
17 -7 30 -16 21 -14 30 -14 55 -4 17 7 37 22 45 34 21 29 19 89 -4 117 l-19
24 -22 -20 c-32 -29 -108 -27 -149 3 l-31 23 0 -455 0 -455 -30 -16 c-16 -8
-33 -15 -37 -15 -4 0 -7 75 -5 166 2 91 -1 164 -5 162 -4 -2 -25 -10 -45 -18
l-38 -14 0 -172 0 -172 -24 -6 c-13 -3 -31 -9 -40 -12 -15 -6 -16 17 -14 253
l3 259 -58 -1 c-52 0 -61 3 -83 28 -13 15 -24 39 -24 53 l0 26 34 -21 c42 -26
98 -27 155 -1 24 11 45 20 47 20 2 0 4 -41 4 -91 0 -83 2 -90 18 -84 9 4 29
12 45 17 l27 10 0 288 0 289 -57 32 c-75 43 -147 50 -198 21 l-35 -21 0 25 c0
15 12 38 29 55 25 25 37 29 83 29 31 0 71 -9 97 -20z m353 -259 c-3 -32 -31
-52 -64 -45 -41 8 -68 -11 -68 -49 0 -41 14 -60 64 -84 l38 -20 -23 -19 c-39
-32 -69 -82 -82 -134 -6 -28 -15 -50 -19 -50 -5 0 -8 70 -9 155 0 85 -1 179
-1 208 l-1 52 64 6 c97 9 104 8 101 -20z m183 -192 c23 -6 58 -23 76 -38 l33
-28 -25 -16 c-24 -16 -28 -16 -76 4 -58 25 -102 21 -154 -14 -64 -42 -97 -149
-68 -224 17 -45 70 -93 116 -105 48 -12 51 -17 23 -43 -47 -42 -152 11 -195
100 -70 143 -7 306 137 356 63 22 75 22 133 8z m-315 -339 c24 -87 123 -170
205 -170 27 0 16 -16 -51 -69 -55 -44 -68 -51 -80 -40 -15 13 -71 14 -107 3
-16 -5 -18 -1 -13 43 3 26 6 100 7 163 2 63 4 118 6 123 8 15 19 -3 33 -53z
m-169 -132 c1 -116 8 -170 25 -189 13 -15 11 -18 -21 -33 -35 -17 -61 -14 -49
5 3 6 5 53 5 107 -1 124 7 192 25 192 11 0 14 -20 15 -82z" />
    <path
      d="M1876 2211 c-14 -16 -15 -23 -6 -41 13 -24 38 -23 54 3 8 12 8 22 0
34 -15 25 -28 26 -48 4z m38 -32 c-8 -14 -34 -11 -34 4 0 8 3 17 7 20 9 9 34
-13 27 -24z" />
    <path
      d="M1123 2168 c-114 -124 -66 -244 89 -223 l51 7 -45 25 c-72 40 -105
117 -78 187 12 32 9 32 -17 4z m24 -160 c3 -10 9 -18 14 -18 5 0 9 -7 9 -15 0
-23 -28 -18 -44 8 -15 23 -21 54 -17 97 2 22 4 20 17 -15 8 -22 18 -48 21 -57z" />
    <path
      d="M1250 1909 c-11 -8 -6 -9 23 -7 29 3 36 1 32 -10 -6 -16 38 -62 60
-62 19 0 11 45 -13 73 -17 19 -78 23 -102 6z" />
    <path
      d="M1090 1859 c0 -14 -47 -34 -92 -38 -5 -1 -8 -10 -8 -21 0 -12 -10
-25 -24 -31 -19 -9 -22 -14 -13 -24 9 -9 21 -3 52 30 52 53 108 70 208 62 39
-3 83 -8 97 -11 14 -4 3 5 -25 19 -41 21 -63 25 -122 24 -40 -1 -73 -6 -73
-10z" />
    <path
      d="M2231 1816 c-9 -11 -10 -20 -1 -35 13 -26 36 -27 49 -2 8 14 6 22 -8
35 -22 20 -25 20 -40 2z" />
    <path
      d="M1340 1816 c0 -4 156 -66 166 -66 2 0 4 5 4 11 0 20 -28 38 -66 43
-22 2 -39 5 -39 6 0 1 -15 3 -32 6 -18 2 -33 2 -33 0z" />
    <path
      d="M813 1655 c-58 -64 -83 -128 -89 -225 -5 -72 1 -71 11 3 5 35 11 47
23 47 10 0 13 3 7 8 -5 4 -10 17 -10 28 1 23 45 94 59 94 5 0 4 -6 -1 -12 -5
-7 -8 -33 -8 -58 0 -31 -5 -47 -15 -52 -12 -5 -12 -7 2 -7 14 -1 17 -10 17
-49 -1 -39 9 -90 36 -172 8 -25 41 -90 56 -111 10 -14 15 -29 12 -33 -4 -3 3
-13 15 -22 12 -8 22 -19 22 -25 0 -5 16 -24 36 -43 22 -21 31 -35 23 -38 -7
-2 4 -12 24 -22 20 -9 37 -23 37 -31 0 -8 6 -15 14 -15 8 0 38 -16 67 -35 30
-19 59 -35 66 -35 7 0 36 -11 65 -24 61 -28 138 -46 206 -47 l47 -1 -60 -29
c-33 -16 -68 -29 -77 -29 -10 0 -18 -4 -18 -10 0 -5 19 -3 41 5 52 19 53 19
45 -1 -6 -15 -3 -15 21 1 16 10 39 28 54 41 17 16 37 24 60 23 29 0 31 -2 13
-9 -32 -13 -43 -34 -13 -25 25 8 111 66 106 72 -2 1 -17 -1 -33 -6 -70 -20
-188 -23 -269 -6 -95 19 -239 85 -312 144 -108 85 -198 217 -245 356 -32 97
-32 264 0 344 12 30 20 56 18 58 -2 2 -26 -21 -53 -52z" />
    <path
      d="M1187 1544 c-10 -10 -7 -85 4 -109 9 -19 9 -18 5 2 -2 13 0 26 5 29
5 3 9 10 9 15 0 6 -4 7 -10 4 -12 -8 -13 8 -1 21 10 11 -1 48 -12 38z" />
    <path
      d="M1070 1447 c0 -24 3 -47 7 -51 4 -3 8 -17 10 -29 2 -12 11 -29 19
-37 14 -13 14 -11 0 20 -17 36 -11 30 30 -26 11 -14 27 -35 36 -46 10 -11 20
-30 24 -41 4 -12 13 -27 20 -35 12 -11 14 -9 14 16 0 17 -13 46 -32 72 -76 99
-100 136 -105 162 -9 46 -23 43 -23 -5z" />
    <path
      d="M1255 1435 c14 -33 17 -131 6 -185 -6 -27 -24 -77 -39 -110 -16 -33
-23 -55 -16 -49 11 9 14 7 14 -7 0 -31 17 -3 36 61 l18 60 6 -77 c3 -42 8 -79
11 -83 4 -3 5 22 2 57 -2 35 0 99 5 143 8 71 10 77 20 55 l11 -25 0 29 c1 36
-32 106 -61 132 -21 19 -21 19 -13 -1z" />
    <path d="M2190 1128 c-13 -29 -25 -56 -28 -60 -2 -5 0 -8 6 -8 5 0 20 27 35
60 31 74 20 80 -13 8z" />
    <path
      d="M2125 1018 c-39 -58 -144 -158 -209 -197 -72 -43 -171 -79 -241 -87
-30 -4 -53 -10 -50 -14 7 -11 112 8 196 35 50 17 90 38 119 64 25 22 48 37 51
35 4 -2 17 6 30 19 35 33 129 147 129 157 0 5 8 10 18 12 15 3 16 4 0 10 -12
5 -24 -4 -43 -34z" />
    <path d="M1183 976 c0 -7 10 -13 21 -14 12 0 31 -4 44 -7 38 -9 24 2 -21 18
-32 11 -44 11 -44 3z" />
    <path
      d="M1615 924 c-31 -9 -86 -14 -142 -12 -51 1 -95 0 -97 -3 -6 -5 -4 -5
115 -9 96 -3 244 19 213 31 -25 10 -31 10 -89 -7z" />
    <path d="M1718 853 c23 -2 61 -2 85 0 23 2 4 4 -43 4 -47 0 -66 -2 -42 -4z" />
    <path
      d="M1862 1210 c-18 -17 -20 -24 -10 -45 15 -33 45 -41 69 -19 24 22 24
46 1 67 -24 22 -34 21 -60 -3z m42 -6 c21 -8 21 -43 0 -51 -8 -3 -23 1 -31 10
-13 13 -14 19 -3 31 14 18 13 18 34 10z" />
  </g>
</svg>